<?xml version="1.0" standalone="no"?>
<!DOCTYPE svg PUBLIC "-//W3C//DTD SVG 20010904//EN"
 "http://www.w3.org/TR/2001/REC-SVG-20010904/DTD/svg10.dtd">
<svg version="1.0" xmlns="http://www.w3.org/2000/svg"
 width="260.000000pt" height="260.000000pt" viewBox="0 0 260.000000 260.000000"
 preserveAspectRatio="xMidYMid meet">
<metadata>
Created by potrace 1.11, written by Peter Selinger 2001-2013
</metadata>
<g transform="translate(0.000000,260.000000) scale(0.100000,-0.100000)"
fill="#000000" stroke="none">
<path d="M1140 2593 c-174 -27 -295 -65 -431 -134 -521 -266 -797 -842 -679
-1421 45 -217 142 -413 296 -592 56 -66 216 -206 234 -206 5 0 14 19 20 43 6
23 20 74 30 112 11 39 125 475 255 970 130 495 256 973 281 1063 24 90 44 165
44 168 0 4 -9 4 -50 -3z"/>
<path d="M1430 2589 c0 -4 106 -403 235 -886 130 -483 270 -1006 312 -1163 42
-157 77 -287 79 -289 8 -9 176 144 230 209 277 332 376 762 269 1173 -115 444
-461 795 -908 922 -79 23 -217 44 -217 34z"/>
<path d="M1306 1859 c-3 -8 -55 -201 -116 -429 -61 -228 -113 -423 -116 -432
-5 -17 11 -18 235 -18 133 0 241 4 241 9 0 12 -231 875 -236 880 -2 2 -6 -2
-8 -10z"/>
<path d="M942 503 c-23 -87 -57 -215 -76 -285 l-34 -128 80 -25 c233 -74 545
-74 775 0 43 14 83 28 90 32 10 7 -21 135 -126 521 l-12 42 -327 0 -328 0 -42
-157z"/>
</g>
</svg>
