<svg id="Layer_1" data-name="Layer 1" xmlns="http://www.w3.org/2000/svg" viewBox="0 0 198 151.72"><defs><style>.cls-1{fill:none;stroke:#000;stroke-miterlimit:10;stroke-width:8px;}</style></defs><title>camera-icon</title><path class="cls-1" d="M195,65.46v97.88a12.23,12.23,0,0,1-12.26,12.23l-165.49-.47A12.25,12.25,0,0,1,5,162.84V65.46A11.86,11.86,0,0,1,16.84,53.6l43-.06a4.55,4.55,0,0,0,4.49-3.93l1-7.62A11.7,11.7,0,0,1,77,31.84h45.94a11.84,11.84,0,0,1,11.74,10.27l1,7.25a4.82,4.82,0,0,0,4.77,4.18l42.78.06A11.85,11.85,0,0,1,195,65.46Z" transform="translate(-1 -27.84)"/><circle class="cls-1" cx="99" cy="87.38" r="44.86"/><circle cx="169.68" cy="51.2" r="8.68"/><line class="cls-1" x1="132.28" y1="4" x2="132.22" y2="4"/><line class="cls-1" x1="65.79" y1="4" x2="65.72" y2="4"/></svg>