<svg id="Layer_1" data-name="Layer 1" xmlns="http://www.w3.org/2000/svg" viewBox="0 0 198 130.14"><defs><style>.cls-1{fill:none;stroke:#000;stroke-miterlimit:10;stroke-width:8px;}</style></defs><title>camera-icon</title><path class="cls-1" d="M195,65v95.51a4.08,4.08,0,0,1-4.08,4.08H9.1a4.1,4.1,0,0,1-4.1-4.1V64.91a4,4,0,0,1,4-4h56.8a3.87,3.87,0,0,0,3.84-3.34l1.57-11.82A3.85,3.85,0,0,1,75,42.43h49.9a4,4,0,0,1,3.94,3.45l1.53,11.5a4.1,4.1,0,0,0,4.07,3.55H191A4,4,0,0,1,195,65Z" transform="translate(-1 -38.43)"/><circle class="cls-1" cx="99" cy="73.09" r="38.25"/><circle cx="174.26" cy="42.25" r="7.4"/><line class="cls-1" x1="127.38" y1="4" x2="127.33" y2="4"/><line class="cls-1" x1="70.69" y1="4" x2="70.62" y2="4"/></svg>