<svg id="Layer_1" data-name="Layer 1" xmlns="http://www.w3.org/2000/svg" viewBox="0 0 196 196"><defs><style>.cls-1{fill:#2e576d;fill-rule:evenodd;}</style></defs><title>email-icon</title><g id="email"><path class="cls-1" d="M190.26,61.88A97.9,97.9,0,0,0,138.12,9.74,97.87,97.87,0,0,0,73.93,5.53a99.37,99.37,0,0,0-23.42,9.9A98.13,98.13,0,0,0,15.43,50.51a99.38,99.38,0,0,0-9.9,23.42,98.07,98.07,0,0,0,0,52.14,99.39,99.39,0,0,0,9.9,23.42,98.13,98.13,0,0,0,35.08,35.08,99.4,99.4,0,0,0,23.42,9.9,98.07,98.07,0,0,0,52.14,0,99.4,99.4,0,0,0,23.42-9.9,98.13,98.13,0,0,0,35.08-35.08,99.42,99.42,0,0,0,9.9-23.42,97.87,97.87,0,0,0-4.21-64.19ZM52,127.64h-.39a.77.77,0,0,1-.59-.78V84.71q0-.59.39-.59a1.26,1.26,0,0,1,1,0l28,16.07c.26,0,.39.2.39.59a.8.8,0,0,1-.2.59L52.37,127.44Q52.37,127.64,52,127.64Zm94.28,12.74H54.33a6.42,6.42,0,0,1-1.57-.39q-.39-.39-.39-.59a1.13,1.13,0,0,1,.2-.78l35.87-33.32q.39-.39,1,0l9.41,5.29a3.89,3.89,0,0,0,4.12,0l10.78-6.27q.78-.39,1,.2L146.84,139a1.55,1.55,0,0,1,.2,1A1.13,1.13,0,0,1,146.26,140.38Zm4.31-11.56q0,.2-.59.78h-.39q-.2,0-.59-.39l-26.66-28.81q-.39-.39-.2-.59,0-.59.39-.59L149.2,83.34H150q.59.39.59.78Zm0-55.86a.69.69,0,0,1-.78.78,1.51,1.51,0,0,1-.59.2,1.5,1.5,0,0,0-.59.2L101.37,102a.8.8,0,0,1-.59.2l-.39-.2L51.59,74.13q-.59,0-.59-.78V63a3.13,3.13,0,0,1,1-2.45,3.39,3.39,0,0,1,2.35-.88h92.9a3.39,3.39,0,0,1,2.35.88,3.13,3.13,0,0,1,1,2.45Z" transform="translate(-2 -2)"/></g></svg>