<svg xmlns="http://www.w3.org/2000/svg" viewBox="0 0 96 96"><defs><style>.cls-1{isolation:isolate;}.cls-2{fill:#317d84;fill-rule:evenodd;}</style></defs><title>github-icon-hover</title><g id="Forma_1" data-name="Forma 1" class="cls-1"><g id="Forma_1-2" data-name="Forma 1"><path class="cls-2" d="M48.5,0a48,48,0,1,0,48,48A48,48,0,0,0,48.5,0Zm4.38,67.7H44.12c-3.8,0-18.86-.29-18.86-18.45A13.69,13.69,0,0,1,29,39.48c-.37-.92-.39-6.17,1.6-11.18,0,0,4.58.5,11.5,5.25a27.34,27.34,0,0,1,6.37-.6,27.31,27.31,0,0,1,6.37.6c6.92-4.75,11.5-5.25,11.5-5.25,2,5,2,10.26,1.6,11.18a13.69,13.69,0,0,1,3.78,9.78C71.74,67.41,56.68,67.7,52.88,67.7Zm-4.31-20h-.14c-6,0-11.21-1.51-14.31,1.34a7.84,7.84,0,0,0-2.64,6c0,9.26,7.42,10.4,16.95,10.4h.14c9.53,0,16.95-1.14,16.95-10.4a7.83,7.83,0,0,0-2.64-6C59.78,46.24,54.53,47.75,48.57,47.75ZM40.47,60.4c-1.81,0-3.28-2-3.28-4.55s1.47-4.54,3.28-4.54,3.29,2,3.29,4.54S42.28,60.4,40.47,60.4Zm16.06,0c-1.81,0-3.29-2-3.29-4.55s1.47-4.54,3.29-4.54,3.28,2,3.28,4.54S58.34,60.4,56.53,60.4Z" transform="translate(-0.5)"/></g></g></svg>