<svg id="Layer_1" data-name="Layer 1" xmlns="http://www.w3.org/2000/svg" viewBox="0 0 195.99 195.99"><defs><style>.cls-1{fill:#317d84;fill-rule:evenodd;}</style></defs><title>instagram-icon-hover</title><g id="instagram"><path class="cls-1" d="M100,119.61A19.59,19.59,0,1,0,80.38,100,19.65,19.65,0,0,0,100,119.61ZM142.84,76V57.1h-2.46l-16.44.05.07,18.9ZM100,2a98,98,0,1,0,98,98A98.11,98.11,0,0,0,100,2Zm55.73,132.19a21.56,21.56,0,0,1-21.54,21.54H65.81a21.56,21.56,0,0,1-21.54-21.54V65.81A21.56,21.56,0,0,1,65.81,44.27h68.38a21.56,21.56,0,0,1,21.54,21.54ZM130.48,100A30.48,30.48,0,1,1,71.76,88.56H55.13v45.63a10.68,10.68,0,0,0,10.68,10.67h68.38a10.68,10.68,0,0,0,10.68-10.67V88.56H128.23A30.21,30.21,0,0,1,130.48,100Z" transform="translate(-2.01 -2)"/></g></svg>