<svg id="Layer_1" data-name="Layer 1" xmlns="http://www.w3.org/2000/svg" viewBox="0 0 196 196"><defs><style>.cls-1{fill:#2e576d;fill-rule:evenodd;}</style></defs><title>linkedin-icon</title><g id="linkedin"><path class="cls-1" d="M117.85,86.07c-8.38,0-12.14,4.61-14.23,7.85V87.19H87.82c.21,4.45,0,47.53,0,47.53h15.8V108.17a10.77,10.77,0,0,1,.52-3.85,8.65,8.65,0,0,1,8.11-5.78c5.72,0,8,4.36,8,10.75v25.43H136V107.46C136,92.87,128.25,86.07,117.85,86.07Zm-14.24,8h-.1a1.84,1.84,0,0,0,.1-.16ZM63.28,134.72h15.8V87.19H63.28ZM100,2a98,98,0,1,0,98,98A98.11,98.11,0,0,0,100,2Zm52,142.32a7.64,7.64,0,0,1-7.73,7.54H55.1a7.64,7.64,0,0,1-7.73-7.54V54.15a7.64,7.64,0,0,1,7.73-7.54h89.14A7.64,7.64,0,0,1,152,54.15Zm-80.69-80c-5.4,0-8.94,3.54-8.94,8.21s3.43,8.21,8.73,8.21h.1c5.51,0,8.94-3.65,8.94-8.21S76.69,64.28,71.28,64.28Z" transform="translate(-2 -2)"/></g></svg>