<svg id="Layer_1" data-name="Layer 1" xmlns="http://www.w3.org/2000/svg" viewBox="0 0 199.01 199.01"><defs><style>.cls-1{fill:#fff;}.cls-2{fill:#2e576d;}.cls-3{fill:none;}</style></defs><title>logo</title><path class="cls-1" d="M100,.2A99.51,99.51,0,1,0,199.5,99.7,99.5,99.5,0,0,0,100,.2Zm1,56.51,6,22.54,11,40.88,1.14,4.26H82.82L84,120.13h0l11-40.89ZM48.71,161.29l-5.39,20.12-.11-.07-1.43-1A99.47,99.47,0,0,1,91.08.6l-10.18,38L70.25,79.22,67.4,90.07l-7.89,30.06ZM100,199.14a99.23,99.23,0,0,1-35.4-6.48l-.07,0,3.79-14.15,4.61-17.21h0l1.5-5.59L76,149.82h49.85L137.14,192A99.13,99.13,0,0,1,100,199.14Zm78.08-37.84a100.12,100.12,0,0,1-19.7,18.92l-16.1-60.08h0L131.29,79.27,120.4,38.61,110.25.73a99.45,99.45,0,0,1,67.82,160.56Z" transform="translate(-0.49 -0.2)"/><path class="cls-2" d="M137.14,192a99.83,99.83,0,0,1-72.55.69l-.07,0,3.79-14.15,4.61-17.21h0l1.5-5.59L76,149.82h49.85Z" transform="translate(-0.49 -0.2)"/><path class="cls-2" d="M91.08.6l-10.18,38L70.25,79.22,67.4,90.07l-7.89,30.06-10.8,41.16-5.39,20.12-.11-.07-1.43-1A99.47,99.47,0,0,1,91.08.6Z" transform="translate(-0.49 -0.2)"/><path class="cls-2" d="M199.46,99.68a99.5,99.5,0,0,1-41.09,80.54l-16.1-60.08h0L131.29,79.27,120.4,38.61,110.25.73a99.36,99.36,0,0,1,89.21,98.95Z" transform="translate(-0.49 -0.2)"/><polygon class="cls-2" points="118.61 124.19 82.33 124.19 83.47 119.93 83.48 119.93 94.44 79.04 100.47 56.51 106.51 79.05 117.47 119.93 118.61 124.19"/><line class="cls-3" x1="80.7" y1="161.09" x2="80.7" y2="161.06"/><line class="cls-3" x1="72.45" y1="161.07" x2="72.41" y2="161.22"/><line class="cls-3" x1="128.53" y1="161.22" x2="128.47" y2="161.02"/><line class="cls-3" x1="72.45" y1="161.02" x2="72.44" y2="161.07"/><line class="cls-3" x1="62.73" y1="106.93" x2="48.22" y2="161.09"/><line class="cls-3" x1="141.78" y1="119.93" x2="140.81" y2="116.29"/><line class="cls-3" x1="115.01" y1="6.16" x2="115.01" y2="6.16"/></svg>