<svg id="Layer_1" data-name="Layer 1" xmlns="http://www.w3.org/2000/svg" viewBox="0 0 194.84 139.48"><defs><style>.cls-1,.cls-2{fill:none;stroke:#000;stroke-linecap:round;stroke-miterlimit:10;}.cls-1{stroke-width:8px;}.cls-2{stroke-width:3px;}</style></defs><title>ml-icon</title><circle class="cls-1" cx="19.57" cy="43.79" r="15.57"/><circle class="cls-1" cx="19.57" cy="93.96" r="15.57"/><circle class="cls-1" cx="175.27" cy="43.79" r="15.57"/><circle class="cls-1" cx="175.27" cy="93.96" r="15.57"/><circle class="cls-1" cx="97.42" cy="19.57" r="15.57"/><circle class="cls-1" cx="97.42" cy="69.74" r="15.57"/><circle class="cls-1" cx="97.42" cy="119.91" r="15.57"/><line class="cls-2" x1="35.14" y1="93.96" x2="81.85" y2="19.57"/><line class="cls-2" x1="35.14" y1="43.79" x2="81.85" y2="69.74"/><line class="cls-2" x1="35.14" y1="93.96" x2="81.85" y2="119.91"/><line class="cls-2" x1="81.85" y1="69.74" x2="35.14" y2="93.96"/><line class="cls-2" x1="81.85" y1="119.91" x2="35.14" y2="43.79"/><line class="cls-2" x1="81.85" y1="19.57" x2="35.14" y2="43.79"/><line class="cls-2" x1="112.99" y1="19.57" x2="159.7" y2="43.79"/><line class="cls-2" x1="159.7" y1="93.96" x2="112.99" y2="19.57"/><line class="cls-2" x1="112.99" y1="69.74" x2="159.7" y2="43.79"/><line class="cls-2" x1="159.7" y1="93.96" x2="112.99" y2="69.74"/><line class="cls-2" x1="112.99" y1="119.91" x2="159.7" y2="43.79"/><line class="cls-2" x1="159.7" y1="93.96" x2="112.99" y2="119.91"/></svg>