<?xml version="1.0" encoding="utf-8"?>
<!-- Generator: Adobe Illustrator 19.1.0, SVG Export Plug-In . SVG Version: 6.00 Build 0)  -->
<svg version="1.1" id="Layer_1" xmlns="http://www.w3.org/2000/svg" xmlns:xlink="http://www.w3.org/1999/xlink" x="0px" y="0px"
	 viewBox="0 0 1024 1024" style="enable-background:new 0 0 1024 1024;" xml:space="preserve">
<style type="text/css">
	.st0{fill:#FFFFFF;}
	.st1{fill:none;stroke:url(#SVGID_1_);stroke-width:30;stroke-linecap:round;stroke-miterlimit:10;}
	.st2{fill:none;stroke:url(#SVGID_2_);stroke-width:30;stroke-linecap:round;stroke-miterlimit:10;}
	.st3{fill:url(#SVGID_3_);}
	.st4{fill:url(#SVGID_4_);}
</style>
<rect class="st0" width="1024" height="1024"/>
<linearGradient id="SVGID_1_" gradientUnits="userSpaceOnUse" x1="512" y1="859.3624" x2="512" y2="396.0625">
	<stop  offset="0" style="stop-color:#F5AB35"/>
	<stop  offset="1" style="stop-color:#F64747"/>
</linearGradient>
<line class="st1" x1="512" y1="844.4" x2="512" y2="411.1"/>
<linearGradient id="SVGID_2_" gradientUnits="userSpaceOnUse" x1="512" y1="919.7437" x2="512" y2="104.2563">
	<stop  offset="0" style="stop-color:#F5AB35"/>
	<stop  offset="1" style="stop-color:#F64747"/>
</linearGradient>
<path class="st2" d="M955.7,787L520.3,903.7c-5.4,1.5-11.1,1.5-16.6,0L92,793.3c-14-3.7-23.7-16.4-23.7-30.9V272.3
	c0-21,19.9-36.3,40.3-30.9l395.2,105.9c5.4,1.5,11.1,1.5,16.6,0l401.8-107.7c9.2-2.5,9.2-15.5,0-17.9L535.7,119.3"/>
<linearGradient id="SVGID_3_" gradientUnits="userSpaceOnUse" x1="290.1551" y1="775.5285" x2="290.1551" y2="359.2121">
	<stop  offset="0" style="stop-color:#F5AB35"/>
	<stop  offset="1" style="stop-color:#F64747"/>
</linearGradient>
<path class="st3" d="M433.3,450.8v292.8c0,21-19.9,36.3-40.2,30.8l-222.4-59.6c-14-3.7-23.7-16.4-23.7-30.8V391.1
	c0-21,19.9-36.3,40.2-30.8l222.4,59.6C423.6,423.7,433.3,436.3,433.3,450.8z"/>
<linearGradient id="SVGID_4_" gradientUnits="userSpaceOnUse" x1="746.0211" y1="739.7656" x2="746.0211" y2="395.6428">
	<stop  offset="0" style="stop-color:#F5AB35"/>
	<stop  offset="1" style="stop-color:#F64747"/>
</linearGradient>
<ellipse class="st4" cx="746" cy="567.7" rx="88.2" ry="172.1"/>
</svg>
