<svg id="Layer_1" data-name="Layer 1" xmlns="http://www.w3.org/2000/svg" xmlns:xlink="http://www.w3.org/1999/xlink" viewBox="0 0 1024 1024"><defs><style>.cls-1{fill:#fff;}.cls-2,.cls-8{stroke:#fff;stroke-miterlimit:10;stroke-width:18px;}.cls-2{fill:url(#linear-gradient);}.cls-3{fill:url(#linear-gradient-2);}.cls-4{fill:url(#linear-gradient-3);}.cls-5{fill:url(#linear-gradient-4);}.cls-6{fill:url(#linear-gradient-5);}.cls-7{fill:url(#linear-gradient-6);}.cls-8{fill:none;}</style><linearGradient id="linear-gradient" x1="733.36" y1="895.41" x2="290.64" y2="128.59" gradientUnits="userSpaceOnUse"><stop offset="0" stop-color="#84ccd1"/><stop offset="0.16" stop-color="#81c8ce"/><stop offset="0.32" stop-color="#78bcc5"/><stop offset="0.48" stop-color="#69a8b5"/><stop offset="0.64" stop-color="#548c9f"/><stop offset="0.8" stop-color="#396983"/><stop offset="0.96" stop-color="#193d61"/><stop offset="1" stop-color="#0f3057"/></linearGradient><linearGradient id="linear-gradient-2" x1="511.83" y1="338.35" x2="511.83" y2="954.65" gradientUnits="userSpaceOnUse"><stop offset="0" stop-color="#727f80"/><stop offset="1" stop-color="#4a545e"/></linearGradient><linearGradient id="linear-gradient-3" x1="406.28" y1="796.43" x2="448.52" y2="772.05" gradientUnits="userSpaceOnUse"><stop offset="0" stop-opacity="0.3"/><stop offset="1" stop-color="#4b77be" stop-opacity="0"/></linearGradient><linearGradient id="linear-gradient-4" x1="626.88" y1="806.46" x2="569.65" y2="773.42" gradientUnits="userSpaceOnUse"><stop offset="0" stop-opacity="0.4"/><stop offset="1" stop-color="#314e7c" stop-opacity="0"/></linearGradient><linearGradient id="linear-gradient-5" x1="181.36" y1="606.04" x2="413.72" y2="1008.5" gradientUnits="userSpaceOnUse"><stop offset="0" stop-color="#16a085"/><stop offset="0.16" stop-color="#179a81"/><stop offset="0.37" stop-color="#198775"/><stop offset="0.63" stop-color="#1c6a63"/><stop offset="0.91" stop-color="#204149"/><stop offset="1" stop-color="#22313f"/></linearGradient><linearGradient id="linear-gradient-6" x1="849.67" y1="605.31" x2="618.81" y2="1005.17" xlink:href="#linear-gradient-5"/></defs><title>sierra-valley-logo</title><rect class="cls-1" width="1024" height="1024"/><circle class="cls-2" cx="512" cy="512" r="442.65"/><path class="cls-3" d="M819.58,830.26a442.62,442.62,0,0,1-615.5-.21l307.68-491.7Z" transform="translate(0 0)"/><path class="cls-4" d="M541.08,932.38l-12.56,21.83q-10.82.44-21.77,0.45-2.9,0-5.81,0L319.53,646.18,347,602.32Z" transform="translate(0 0)"/><path class="cls-5" d="M711.89,658.13l-170.25,296q-10.9.46-21.91,0.46a522.27,522.27,0,0,1-52.4-2.62L672.53,595.23Z" transform="translate(0 0)"/><path class="cls-6" d="M507.09,954.59C358.27,953,227.07,877.9,148,763.93L271.5,554Z" transform="translate(0 0)"/><path class="cls-7" d="M879,759.5c-76.3,112.93-203.34,188.75-348.41,194.76L760.86,554Z" transform="translate(0 0)"/><circle class="cls-8" cx="512" cy="512" r="442.65"/></svg>